<svg width="48" height="48" viewBox="0 0 48 48" fill="none" xmlns="http://www.w3.org/2000/svg">
<rect width="48" height="48" rx="24" fill="#FAFF08"/>
<path d="M33.5 18.5H30.33L28.5 16.5H22.5V18.5H27.62L29.45 20.5H33.5V32.5H17.5V23.5H15.5V32.5C15.5 33.6 16.4 34.5 17.5 34.5H33.5C34.6 34.5 35.5 33.6 35.5 32.5V20.5C35.5 19.4 34.6 18.5 33.5 18.5ZM20.5 26.5C20.5 29.26 22.74 31.5 25.5 31.5C28.26 31.5 30.5 29.26 30.5 26.5C30.5 23.74 28.26 21.5 25.5 21.5C22.74 21.5 20.5 23.74 20.5 26.5ZM25.5 23.5C27.15 23.5 28.5 24.85 28.5 26.5C28.5 28.15 27.15 29.5 25.5 29.5C23.85 29.5 22.5 28.15 22.5 26.5C22.5 24.85 23.85 23.5 25.5 23.5ZM17.5 18.5H20.5V16.5H17.5V13.5H15.5V16.5H12.5V18.5H15.5V21.5H17.5V18.5Z" fill="#061136"/>
</svg>
