<svg width="55" height="44" viewBox="0 0 55 44" fill="none" xmlns="http://www.w3.org/2000/svg">
<path d="M2.29 25.4818L2.28884 25.4809C1.23705 24.6605 1.23705 23.0729 2.28884 22.2525L2.29 22.2516L24.5988 4.7448L24.5998 4.74398C25.9434 3.68375 27.9247 4.64727 27.9247 6.36644V14.989V15.4641L28.3992 15.4884C34.032 15.7759 43.9259 16.6637 51.5587 19.3979C52.7714 19.8361 53.57 20.9811 53.57 22.277V25.4565C53.57 26.7403 52.7704 27.8977 51.5587 28.3355C43.9259 31.0698 34.032 31.9576 28.3992 32.2451L27.9247 32.2693V32.7444V41.367C27.9247 43.0808 25.9468 44.0408 24.5987 42.9886C24.5984 42.9884 24.5982 42.9882 24.5979 42.988L2.29 25.4818Z" fill="#FFB801" stroke="#FFB801"/>
<path d="M24.2901 40.5821L1.98132 23.0753C0.672892 22.0547 0.672892 20.079 1.98132 19.0584L24.2901 1.55155C25.9649 0.230037 28.4247 1.43379 28.4247 3.56654V12.1891C34.0641 12.477 44.0212 13.3667 51.7279 16.1275C53.141 16.6378 54.07 17.9724 54.07 19.4771V22.6566C54.07 24.1482 53.141 25.4959 51.7279 26.0061C44.0212 28.7669 34.0641 29.6567 28.4247 29.9445V38.5671C28.4247 40.6998 25.9649 41.8905 24.2901 40.5821Z" fill="#FAFF08" stroke="#FFB801" stroke-width="0.81" stroke-miterlimit="10"/>
</svg>
