<svg width="55" height="44" viewBox="0 0 55 44" fill="none" xmlns="http://www.w3.org/2000/svg">
<path d="M2.29 24.8098L2.28884 24.8089C1.23705 23.9885 1.23705 22.4009 2.28884 21.5805L2.29 21.5796L24.5988 4.0728L24.5998 4.07197C25.9434 3.01175 27.9247 3.97526 27.9247 5.69444V14.317V14.7921L28.3992 14.8164C34.032 15.1039 43.9259 15.9917 51.5587 18.7259C52.7714 19.1641 53.57 20.3091 53.57 21.605V24.7845C53.57 26.0683 52.7704 27.2257 51.5587 27.6635C43.9259 30.3977 34.032 31.2856 28.3992 31.5731L27.9247 31.5973V32.0724V40.695C27.9247 42.4088 25.9468 43.3688 24.5987 42.3166C24.5984 42.3164 24.5982 42.3162 24.5979 42.316L2.29 24.8098Z" fill="#FFB801" stroke="#FAFF08"/>
<path d="M24.2901 40.5821L1.98132 23.0753C0.672892 22.0547 0.672892 20.0789 1.98132 19.0584L24.2901 1.55155C25.9649 0.230037 28.4247 1.43379 28.4247 3.56654V12.1891C34.0641 12.477 44.0212 13.3667 51.7279 16.1275C53.141 16.6378 54.07 17.9724 54.07 19.4771V22.6566C54.07 24.1482 53.141 25.4959 51.7279 26.0061C44.0212 28.7669 34.0641 29.6567 28.4247 29.9445V38.5671C28.4247 40.6998 25.9649 41.8905 24.2901 40.5821Z" fill="#FFB801" stroke="#FAFF08" stroke-width="0.81" stroke-miterlimit="10"/>
</svg>
