<svg width="125" height="124" viewBox="0 0 125 124" fill="none" xmlns="http://www.w3.org/2000/svg">
<ellipse cx="62.7033" cy="62" rx="62.1669" ry="62" fill="#FFB801"/>
<path d="M73.8934 59.31C76.4794 59.31 78.5758 57.2137 78.5758 54.6277C78.5758 52.0417 76.4794 49.9453 73.8934 49.9453C71.3074 49.9453 69.211 52.0417 69.211 54.6277C69.211 57.2137 71.3074 59.31 73.8934 59.31Z" fill="#FAFF08"/>
<path d="M52.0423 59.31C54.6283 59.31 56.7247 57.2137 56.7247 54.6277C56.7247 52.0417 54.6283 49.9453 52.0423 49.9453C49.4563 49.9453 47.36 52.0417 47.36 54.6277C47.36 57.2137 49.4563 59.31 52.0423 59.31Z" fill="#FAFF08"/>
<path d="M62.9679 74.9179C58.3479 74.9179 54.3835 72.3894 52.1984 68.6748H46.9854C49.4826 75.074 55.6946 79.6003 62.9679 79.6003C70.2411 79.6003 76.4531 75.074 78.9503 68.6748H73.7373C71.5834 72.3894 67.5878 74.9179 62.9679 74.9179ZM62.9366 31.2158C45.7055 31.2158 31.7521 45.2005 31.7521 62.4316C31.7521 79.6627 45.7055 93.6474 62.9366 93.6474C80.199 93.6474 94.1836 79.6627 94.1836 62.4316C94.1836 45.2005 80.199 31.2158 62.9366 31.2158ZM62.9679 87.4042C49.1705 87.4042 37.9952 76.229 37.9952 62.4316C37.9952 48.6342 49.1705 37.459 62.9679 37.459C76.7652 37.459 87.9405 48.6342 87.9405 62.4316C87.9405 76.229 76.7652 87.4042 62.9679 87.4042Z" fill="#FAFF08"/>
</svg>
