<svg width="220" height="61" viewBox="0 0 220 61" fill="none" xmlns="http://www.w3.org/2000/svg">
<path d="M219.012 43.4937V21.3058C219.012 12.1833 211.597 4.78807 202.451 4.78807L16.5612 4.78807C7.41481 4.78807 0.000198364 12.1833 0.000198364 21.3058V43.4937C0.000198364 52.6162 7.41481 60.0114 16.5612 60.0114L202.451 60.0114C211.597 60.0114 219.012 52.6162 219.012 43.4937Z" fill="#3F45CA"/>
<path d="M219.012 38.7056V16.5178C219.012 7.39525 211.597 0 202.451 0L16.5727 0C7.42633 0 0.0117188 7.39525 0.0117188 16.5178V38.7056C0.0117188 47.8281 7.42633 55.2234 16.5727 55.2234L202.451 55.2234C211.597 55.2234 219.012 47.8281 219.012 38.7056Z" fill="#FAFF08"/>
<path d="M203.049 3.48238H16.5841C9.35955 3.48238 3.50293 9.32371 3.50293 16.5293V38.7057C3.50293 45.9114 9.35955 51.7527 16.5841 51.7527H203.049C210.273 51.7527 216.13 45.9114 216.13 38.7057V16.5293C216.13 9.32371 210.273 3.48238 203.049 3.48238Z" fill="#3F45CA"/>
<path opacity="0.52" d="M3.50293 31.5922V38.6941C3.50293 45.8992 9.36016 51.7411 16.5841 51.7411H203.049C210.273 51.7411 216.13 45.8992 216.13 38.6941V31.5922H3.50293Z" fill="#061136"/>
<path d="M176.349 55.2235H42.0117V60.0116H176.349V55.2235Z" fill="#1C2579"/>
</svg>
