<svg width="41" height="44" viewBox="0 0 41 44" fill="none" xmlns="http://www.w3.org/2000/svg">
<path d="M20.1513 43.9793C9.1129 43.9793 0.132324 34.9987 0.132324 23.9603C0.132324 12.9218 9.1129 3.94946 20.1513 3.94946C31.1898 3.94946 40.1704 12.93 40.1704 23.9685C40.1704 35.0069 31.1898 43.9875 20.1513 43.9875V43.9793Z" fill="#C96046"/>
<path d="M20.147 43.1569C30.7486 43.1569 39.3429 34.5626 39.3429 23.961C39.3429 13.3594 30.7486 4.76514 20.147 4.76514C9.54546 4.76514 0.951172 13.3594 0.951172 23.961C0.951172 34.5626 9.54546 43.1569 20.147 43.1569Z" fill="#943328"/>
<path d="M20.1513 40.1516C9.1129 40.1516 0.132324 31.1793 0.132324 20.1408C0.132324 9.1024 9.1129 0.121826 20.1513 0.121826C31.1898 0.121826 40.1704 9.1024 40.1704 20.1408C40.1704 31.1793 31.1898 40.1599 20.1513 40.1599V40.1516Z" fill="#C96046"/>
<path d="M20.1514 39.3368C30.753 39.3368 39.3473 30.7425 39.3473 20.1409C39.3473 9.53935 30.753 0.945068 20.1514 0.945068C9.54985 0.945068 0.955566 9.53935 0.955566 20.1409C0.955566 30.7425 9.54985 39.3368 20.1514 39.3368Z" fill="url(#paint0_linear_3507_2022)"/>
<g style="mix-blend-mode:overlay" opacity="0.56">
<path d="M21.3779 20.4784V34.8424C28.8439 34.225 34.7294 28.0596 34.9023 20.4784H21.3779Z" fill="white"/>
</g>
<g style="mix-blend-mode:overlay" opacity="0.56">
<path d="M0.955566 20.1409C0.955566 22.3798 1.34245 24.5283 2.05036 26.5285C4.89023 28.0925 8.15813 28.9897 11.6236 28.9897C22.6044 28.9897 31.5027 20.0915 31.5027 9.11065C31.5027 7.42319 31.2887 5.79336 30.8936 4.22937C27.8232 2.15503 24.1273 0.936768 20.1432 0.936768C9.54926 0.944999 0.955566 9.53869 0.955566 20.1409Z" fill="white"/>
</g>
<path d="M20.1513 33.3196C27.4297 33.3196 33.3299 27.4193 33.3299 20.1409C33.3299 12.8626 27.4297 6.96228 20.1513 6.96228C12.8729 6.96228 6.97266 12.8626 6.97266 20.1409C6.97266 27.4193 12.8729 33.3196 20.1513 33.3196Z" fill="#943328"/>
<path d="M31.0395 23.1882C32.4586 17.1752 28.7346 11.1502 22.7217 9.731C16.7087 8.31181 10.6837 12.0358 9.2645 18.0488C7.84531 24.0618 11.5693 30.0868 17.5823 31.506C23.5953 32.9252 29.6203 29.2011 31.0395 23.1882Z" fill="#C96046"/>
<path d="M14.7927 25.977C14.1836 25.977 13.6732 25.5407 13.5662 24.9398L12.6772 19.6223C12.6196 19.2601 12.7184 18.8979 12.9489 18.618C13.1876 18.3382 13.5333 18.1735 13.9037 18.1735C14.1753 18.1735 14.4305 18.2641 14.6528 18.4287L16.1427 19.5646L19.1472 15.5065C19.3859 15.1855 19.7481 15.0044 20.1432 15.0044C20.5383 15.0044 20.9005 15.1855 21.1392 15.5065L24.1437 19.5646L25.6336 18.4287C25.8559 18.2641 26.111 18.1735 26.3827 18.1735C26.7531 18.1735 27.0988 18.3382 27.3375 18.618C27.568 18.8897 27.6668 19.2601 27.6092 19.6223L26.7202 24.9398C26.6214 25.5407 26.1028 25.977 25.4937 25.977H14.7762H14.7927Z" fill="url(#paint1_linear_3507_2022)"/>
<path d="M14.7927 25.2691C14.1836 25.2691 13.6732 24.8328 13.5662 24.2319L12.6772 18.9144C12.6196 18.5522 12.7184 18.19 12.9489 17.9101C13.1876 17.6303 13.5333 17.4656 13.9037 17.4656C14.1753 17.4656 14.4305 17.5562 14.6528 17.7208L16.1427 18.8568L19.1472 14.7986C19.3859 14.4776 19.7481 14.2965 20.1432 14.2965C20.5383 14.2965 20.9005 14.4776 21.1392 14.7986L24.1437 18.8568L25.6336 17.7208C25.8559 17.5562 26.111 17.4656 26.3827 17.4656C26.7531 17.4656 27.0988 17.6303 27.3375 17.9101C27.568 18.1818 27.6668 18.5522 27.6092 18.9144L26.7202 24.2319C26.6214 24.8328 26.1028 25.2691 25.4937 25.2691H14.7762H14.7927Z" fill="url(#paint2_linear_3507_2022)"/>
<path d="M24.0451 19.6552L20.7031 15.1361C20.4315 14.7657 19.88 14.7657 19.6083 15.1361L16.2663 19.6552L14.3319 18.1735C13.838 17.7949 13.1466 18.2147 13.2454 18.8238L14.1344 24.1414C14.192 24.4706 14.4719 24.7093 14.8093 24.7093H25.5268C25.8643 24.7093 26.1441 24.4706 26.2017 24.1414L27.0908 18.8238C27.1895 18.2147 26.4981 17.7949 26.0042 18.1735L24.0698 19.6552H24.0451Z" fill="url(#paint3_linear_3507_2022)"/>
<defs>
<linearGradient id="paint0_linear_3507_2022" x1="20.1514" y1="40.0776" x2="20.1514" y2="5.87574" gradientUnits="userSpaceOnUse">
<stop stop-color="#FA6B49"/>
<stop offset="1" stop-color="#FEB749"/>
</linearGradient>
<linearGradient id="paint1_linear_3507_2022" x1="17.8301" y1="27.5739" x2="22.4398" y2="14.0578" gradientUnits="userSpaceOnUse">
<stop stop-color="#FA6B49"/>
<stop offset="1" stop-color="#FEB749"/>
</linearGradient>
<linearGradient id="paint2_linear_3507_2022" x1="17.8301" y1="26.8742" x2="22.4398" y2="13.3581" gradientUnits="userSpaceOnUse">
<stop stop-color="#FDE049"/>
<stop offset="1" stop-color="#FEFE49"/>
</linearGradient>
<linearGradient id="paint3_linear_3507_2022" x1="18.0279" y1="26.298" x2="22.2095" y2="14.0166" gradientUnits="userSpaceOnUse">
<stop stop-color="#FA6B49"/>
<stop offset="1" stop-color="#FEB749"/>
</linearGradient>
</defs>
</svg>
