<svg width="59" height="63" viewBox="0 0 59 63" fill="none" xmlns="http://www.w3.org/2000/svg">
<path d="M29.3775 62.68C24.8675 62.68 20.2875 62.49 15.7775 62.1C7.65751 61.41 1.2675 55.02 0.5775 46.9C-0.1925 37.88 -0.1925 28.73 0.5775 19.7C1.2675 11.58 7.65751 5.19 15.7775 4.5C20.2875 4.12 24.8675 3.92 29.3775 3.92C33.8875 3.92 38.4675 4.11 42.9775 4.5C51.0975 5.19 57.4875 11.58 58.1775 19.7C58.9475 28.72 58.9475 37.87 58.1775 46.9C57.4875 55.02 51.0975 61.41 42.9775 62.1C38.4675 62.48 33.8875 62.68 29.3775 62.68Z" fill="#3F45CA"/>
<path d="M29.3775 58.76C24.8675 58.76 20.2875 58.57 15.7775 58.18C7.65751 57.49 1.2675 51.1 0.5775 42.98C-0.1925 33.96 -0.1925 24.81 0.5775 15.78C1.2675 7.66 7.65751 1.27 15.7775 0.580002C20.2875 0.200002 24.8675 0 29.3775 0C33.8875 0 38.4675 0.190002 42.9775 0.580002C51.0975 1.27 57.4875 7.66 58.1775 15.78C58.9475 24.8 58.9475 33.95 58.1775 42.98C57.4875 51.1 51.0975 57.49 42.9775 58.18C38.4675 58.56 33.8875 58.76 29.3775 58.76Z" fill="#1C2579"/>
<path d="M42.8076 56.17C33.8576 56.93 24.9076 56.93 15.9476 56.17C8.85759 55.57 3.19759 49.91 2.59759 42.82C1.83759 33.87 1.83759 24.92 2.59759 15.96C3.19759 8.87 8.85759 3.20999 15.9476 2.60999C24.8976 1.84999 33.8476 1.84999 42.8076 2.60999C49.8976 3.20999 55.5576 8.87 56.1576 15.96C56.9176 24.91 56.9176 33.86 56.1576 42.82C55.5576 49.91 49.8976 55.57 42.8076 56.17Z" fill="#3F45CA"/>
</svg>
