<svg width="22" height="18" viewBox="0 0 22 18" fill="none" xmlns="http://www.w3.org/2000/svg">
<g clip-path="url(#clip0_3507_2077)">
<path d="M10.6598 2.48694L11.0099 2.8304L11.3601 2.48694C12.3565 1.50948 13.9978 0.5 15.7799 0.5C16.9225 0.5 18.6713 0.923778 20.3314 3.11194C21.2669 4.35039 21.5922 5.72738 21.3086 7.23733C20.8654 9.5785 18.9928 11.8419 17.0476 13.6197C15.1208 15.3806 13.2106 16.5868 12.8264 16.8251C12.2768 17.1652 11.6483 17.34 11.0099 17.34H10.9999C10.3685 17.34 9.747 17.1589 9.17818 16.8218C8.00218 16.1002 6.03634 14.7892 4.26813 13.1201C2.48553 11.4375 0.972186 9.45446 0.591645 7.39938C0.308463 5.85498 0.658766 4.42766 1.67609 3.10505C3.35668 0.924135 5.10714 0.5 6.24993 0.5C8.05062 0.5 9.66187 1.50803 10.6598 2.48694Z" fill="#061136" stroke="#3F45CA"/>
</g>
<defs>
<clipPath id="clip0_3507_2077">
<rect width="21.9" height="17.84" fill="white"/>
</clipPath>
</defs>
</svg>
