<svg width="22" height="18" viewBox="0 0 22 18" fill="none" xmlns="http://www.w3.org/2000/svg">
<g clip-path="url(#clip0_3507_2065)">
<path d="M19.92 3.41C16.18 -1.54 11.67 2.46 11 3.71C10.33 2.46 5.87002 -1.53 2.08002 3.41C-1.87998 8.57 6.13002 14.36 9.45002 16.39C10.42 16.98 11.59 16.98 12.56 16.39C15.88 14.35 23.62 8.29 19.93 3.41H19.92Z" fill="#282844"/>
<path d="M10.9999 17.84C10.2699 17.84 9.55993 17.63 8.91993 17.25C6.53993 15.79 0.919926 11.92 0.0999263 7.49C-0.210074 5.8 0.179926 4.23 1.27993 2.8C3.05993 0.49 4.95993 0 6.24993 0C8.22993 0 9.95993 1.1 11.0099 2.13C12.0599 1.1 13.8199 0 15.7799 0C17.0699 0 18.9699 0.49 20.7299 2.81C21.7499 4.16 22.1099 5.68 21.7999 7.33C20.8499 12.35 13.8799 16.76 13.0899 17.25C12.4599 17.64 11.7399 17.84 11.0099 17.84H10.9999Z" fill="url(#paint0_linear_3507_2065)"/>
<path d="M19.92 3.41C16.18 -1.54 11.67 2.46 11 3.71C10.33 2.46 5.87002 -1.53 2.08002 3.41C-1.87998 8.57 6.13002 14.36 9.45002 16.39C10.42 16.98 11.59 16.98 12.56 16.39C15.88 14.35 23.62 8.29 19.93 3.41H19.92Z" fill="url(#paint1_linear_3507_2065)"/>
<path d="M5.69002 2.09999C6.19002 2.75999 5.72002 3.94999 4.65002 4.74999C3.58002 5.54999 2.31002 5.65999 1.81002 4.99999C1.31002 4.33999 1.78002 3.14999 2.85002 2.34999C3.92002 1.54999 5.19002 1.43999 5.69002 2.09999Z" fill="url(#paint2_linear_3507_2065)"/>
<path style="mix-blend-mode:multiply" opacity="0.21" d="M19.9199 3.40997C19.8699 3.33997 19.8099 3.28997 19.7599 3.21997C18.3599 7.41997 15.3799 13.47 9.37988 16.35C9.39988 16.36 9.41988 16.38 9.43988 16.39C10.4099 16.98 11.5799 16.98 12.5499 16.39C15.8699 14.36 23.6099 8.28997 19.9199 3.40997Z" fill="url(#paint3_linear_3507_2065)"/>
</g>
<defs>
<linearGradient id="paint0_linear_3507_2065" x1="12.0599" y1="18.32" x2="10.0299" y2="-3.71" gradientUnits="userSpaceOnUse">
<stop stop-color="#FD859B"/>
<stop offset="1" stop-color="#FF8AA0"/>
</linearGradient>
<linearGradient id="paint1_linear_3507_2065" x1="11.96" y1="17.26" x2="10.15" y2="-2.35" gradientUnits="userSpaceOnUse">
<stop stop-color="#D92348"/>
<stop offset="1" stop-color="#FF6381"/>
</linearGradient>
<linearGradient id="paint2_linear_3507_2065" x1="4.83055" y1="4.74654" x2="2.3788" y2="2.03469" gradientUnits="userSpaceOnUse">
<stop stop-color="#FD859B"/>
<stop offset="1" stop-color="#FF8AA0"/>
</linearGradient>
<linearGradient id="paint3_linear_3507_2065" x1="15.6599" y1="16.82" x2="14.2399" y2="1.39997" gradientUnits="userSpaceOnUse">
<stop stop-color="#B31D3B"/>
<stop offset="1" stop-color="#FF6381"/>
</linearGradient>
<clipPath id="clip0_3507_2065">
<rect width="21.9" height="17.84" fill="white"/>
</clipPath>
</defs>
</svg>
