<svg width="31" height="31" viewBox="0 0 31 31" fill="none" xmlns="http://www.w3.org/2000/svg">
<path d="M30.5148 0.341346C30.2068 0.0762115 29.7976 -0.0430658 29.3937 0.0139693L9.69048 2.80579C8.99709 2.90405 8.48213 3.49306 8.48213 4.18777V9.77147V20.5541C7.64852 20.0724 6.68079 19.7951 5.64842 19.7951C2.53392 19.7951 0 22.3084 0 25.3975C0 28.4867 2.53386 31 5.64836 31C8.76287 31 11.2968 28.4867 11.2968 25.3975V10.9822L28.1853 8.58917V17.7623C27.3517 17.2806 26.3839 17.0032 25.3516 17.0032C22.2371 17.0032 19.7032 19.5165 19.7032 22.6057C19.7032 25.6948 22.2371 28.2081 25.3516 28.2081C28.4661 28.2081 31 25.6948 31 22.6057V6.97959V1.39589C31.0001 0.991196 30.823 0.606481 30.5148 0.341346Z" fill="#FAFF08"/>
</svg>
