<svg width="374" height="135" viewBox="0 0 374 135" fill="none" xmlns="http://www.w3.org/2000/svg">
<path d="M374 57.3969V86.8525C374 90.8314 370.784 94.0531 366.813 94.0531H347.357C343.385 94.0531 340.17 90.8314 340.17 86.8525V57.3969C340.17 53.418 343.385 50.1963 347.357 50.1963H366.813C370.784 50.1963 374 53.418 374 57.3969Z" fill="url(#paint0_linear_3507_2106)"/>
<path d="M347.342 51.6661H366.798C369.955 51.6661 372.503 54.2346 372.503 57.3821V86.8377C372.503 90 369.94 92.5536 366.798 92.5536H347.342C344.185 92.5536 341.637 89.9852 341.637 86.8377V57.3821C341.637 54.2198 344.2 51.6661 347.342 51.6661Z" fill="url(#paint1_linear_3507_2106)"/>
<path d="M366.783 64.6568C366.783 66.0376 365.672 67.1511 364.294 67.1511C362.916 67.1511 361.804 66.0376 361.804 64.6568C361.804 63.2761 362.916 62.1626 364.294 62.1626C365.672 62.1626 366.783 63.2761 366.783 64.6568Z" fill="#C96046"/>
<path d="M374 105.084V111.156C374 115.135 370.784 118.357 366.813 118.357H347.357C343.385 118.357 340.17 115.135 340.17 111.156V105.084C340.17 101.105 343.385 97.8835 347.357 97.8835H366.813C370.784 97.8835 374 101.105 374 105.084Z" fill="url(#paint2_linear_3507_2106)"/>
<path d="M347.342 99.3682H366.798C369.955 99.3682 372.503 101.937 372.503 105.084V111.156C372.503 114.319 369.94 116.872 366.798 116.872H347.342C344.185 116.872 341.637 114.304 341.637 111.156V105.084C341.637 101.922 344.2 99.3682 347.342 99.3682Z" fill="url(#paint3_linear_3507_2106)"/>
<path d="M33.8303 57.3969V86.8525C33.8303 90.8314 30.6147 94.0531 26.6434 94.0531H7.18695C3.21564 94.0531 5.72205e-05 90.8314 5.72205e-05 86.8525V57.3969C5.72205e-05 53.418 3.21564 50.1963 7.18695 50.1963H26.6434C30.6147 50.1963 33.8303 53.418 33.8303 57.3969Z" fill="url(#paint4_linear_3507_2106)"/>
<path d="M7.18693 92.5685H26.6582C29.809 92.5685 32.3633 90.0094 32.3633 86.8525L32.3633 57.3821C32.3633 54.2253 29.809 51.6661 26.6582 51.6661H7.18693C4.03611 51.6661 1.48187 54.2253 1.48187 57.3821L1.48187 86.8525C1.48187 90.0094 4.03611 92.5685 7.18693 92.5685Z" fill="url(#paint5_linear_3507_2106)"/>
<path d="M7.21655 64.6568C7.21655 66.0376 8.32793 67.1511 9.70603 67.1511C11.0841 67.1511 12.1955 66.0376 12.1955 64.6568C12.1955 63.2761 11.0841 62.1626 9.70603 62.1626C8.32793 62.1626 7.21655 63.2761 7.21655 64.6568Z" fill="#C96046"/>
<path d="M33.8452 105.084V111.156C33.8452 115.135 30.6296 118.357 26.6583 118.357H7.20185C3.23053 118.357 0.0149536 115.135 0.0149536 111.156V105.084C0.0149536 101.105 3.23053 97.8835 7.20185 97.8835H26.6583C30.6296 97.8835 33.8452 101.105 33.8452 105.084Z" fill="url(#paint6_linear_3507_2106)"/>
<path d="M7.18693 116.902H26.6582C29.809 116.902 32.3633 114.343 32.3633 111.186V105.099C32.3633 101.942 29.809 99.383 26.6582 99.383H7.18693C4.03611 99.383 1.48187 101.942 1.48187 105.099V111.186C1.48187 114.343 4.03611 116.902 7.18693 116.902Z" fill="url(#paint7_linear_3507_2106)"/>
<path d="M273.324 12.2484V40.0264L100.661 40.0264V12.2484C100.661 5.49324 106.144 0 112.886 0L261.099 0C267.841 0 273.324 5.49324 273.324 12.2484Z" fill="url(#paint8_linear_3507_2106)"/>
<path d="M112.886 2.96936H261.099C266.212 2.96936 270.361 7.1264 270.361 12.2485V37.0571H103.625V12.2485C103.625 7.1264 107.774 2.96936 112.886 2.96936Z" fill="url(#paint9_linear_3507_2106)"/>
<path d="M123.422 40.5905L114.813 23.0715H89.5771H87.0876H61.852L53.2573 40.5905H123.422Z" fill="url(#paint10_linear_3507_2106)" stroke="#8B9FBE" stroke-width="0.76" stroke-miterlimit="10"/>
<path d="M250.578 40.5905L259.173 23.0715H284.423H286.898H312.149L320.743 40.5905H250.578Z" fill="url(#paint11_linear_3507_2106)" stroke="#8B9FBE" stroke-width="0.76" stroke-miterlimit="10"/>
<path d="M354.973 111.201V57.2335C354.973 45.0736 345.135 35.2161 332.998 35.2161L41.0025 35.2161C28.8657 35.2161 19.0269 45.0736 19.0269 57.2335V111.201C19.0269 123.361 28.8657 133.218 41.0025 133.218H332.998C345.135 133.218 354.973 123.361 354.973 111.201Z" fill="#1C2579" stroke="#3F45CA" stroke-width="2.4" stroke-miterlimit="10"/>
<path d="M46.2926 67.7651H327.708C334.028 67.7651 339.155 72.8991 339.155 79.2363V105.901C339.155 112.238 334.028 117.372 327.708 117.372H46.2926C39.9722 117.372 34.8452 112.238 34.8452 105.901V79.2363C34.8452 72.8991 39.9722 67.7651 46.2926 67.7651Z" fill="#061136" stroke="#3F45CA" stroke-width="2"/>
<path d="M307.51 56.996H304.917C304.176 56.996 303.658 56.2537 303.909 55.5559L308.014 44.1982C308.162 43.7677 308.577 43.4856 309.022 43.4856H311.615C312.356 43.4856 312.875 44.2279 312.623 44.9257L308.518 56.2833C308.37 56.7139 307.955 56.996 307.51 56.996Z" fill="#6E78B3"/>
<path d="M315.972 56.996H313.378C312.638 56.996 312.119 56.2537 312.371 55.5559L316.475 44.1982C316.624 43.7677 317.039 43.4856 317.483 43.4856H320.076C320.817 43.4856 321.336 44.2279 321.084 44.9257L316.979 56.2833C316.831 56.7139 316.416 56.996 315.972 56.996Z" fill="#6E78B3"/>
<path d="M324.433 56.996H321.84C321.099 56.996 320.58 56.2537 320.832 55.5559L324.937 44.1982C325.085 43.7677 325.5 43.4856 325.944 43.4856H328.538C329.278 43.4856 329.797 44.2279 329.545 44.9257L325.44 56.2833C325.292 56.7139 324.877 56.996 324.433 56.996Z" fill="#6E78B3"/>
<path d="M66.4753 56.996H69.0685C69.8094 56.996 70.3281 56.2537 70.0762 55.5559L65.9715 44.1982C65.8233 43.7677 65.4084 43.4856 64.9638 43.4856H62.3706C61.6297 43.4856 61.1111 44.2279 61.363 44.9257L65.4677 56.2833C65.6158 56.7139 66.0308 56.996 66.4753 56.996Z" fill="#6E78B3"/>
<path d="M58.0139 56.996H60.6071C61.348 56.996 61.8667 56.2537 61.6147 55.5559L57.5101 44.1982C57.3619 43.7677 56.947 43.4856 56.5024 43.4856H53.9092C53.1683 43.4856 52.6496 44.2279 52.9016 44.9257L57.0062 56.2833C57.1544 56.7139 57.5693 56.996 58.0139 56.996Z" fill="#6E78B3"/>
<path d="M49.5527 56.996H52.1459C52.8868 56.996 53.4055 56.2537 53.1536 55.5559L49.0489 44.1982C48.9007 43.7677 48.4858 43.4856 48.0412 43.4856H45.448C44.7071 43.4856 44.1885 44.2279 44.4404 44.9257L48.5451 56.2833C48.6932 56.7139 49.1081 56.996 49.5527 56.996Z" fill="#6E78B3"/>
<path d="M340.54 54.7394C340.54 55.5263 339.903 56.1498 339.133 56.1498C338.362 56.1498 337.725 55.5114 337.725 54.7394C337.725 53.9674 338.362 53.329 339.133 53.329C339.903 53.329 340.54 53.9674 340.54 54.7394Z" fill="#282844"/>
<path d="M340.303 54.7394C340.303 55.3927 339.785 55.9123 339.133 55.9123C338.481 55.9123 337.962 55.3778 337.962 54.7394C337.962 54.101 338.481 53.5665 339.133 53.5665C339.785 53.5665 340.303 54.101 340.303 54.7394Z" fill="#28BBFF"/>
<path d="M36.2754 54.7394C36.2754 55.5263 35.6383 56.1498 34.8677 56.1498C34.0972 56.1498 33.46 55.5114 33.46 54.7394C33.46 53.9674 34.0972 53.329 34.8677 53.329C35.6383 53.329 36.2754 53.9674 36.2754 54.7394Z" fill="#282844"/>
<path d="M36.0383 54.7394C36.0383 55.3927 35.5197 55.9123 34.8677 55.9123C34.2157 55.9123 33.697 55.3778 33.697 54.7394C33.697 54.101 34.2305 53.5665 34.8677 53.5665C35.5049 53.5665 36.0383 54.101 36.0383 54.7394Z" fill="#28BBFF"/>
<path d="M81.2343 47.9397C84.1239 47.5833 89.9623 47.0489 94.6894 47.8357C95.6674 47.9991 96.3787 48.8602 96.3787 49.84V53.715C96.3787 54.8136 95.5192 55.7044 94.4375 55.749C91.4442 55.8677 85.6354 56.0311 81.3677 55.8084C80.3008 55.749 79.4709 54.8582 79.4709 53.7744V49.9588C79.4709 48.9344 80.2267 48.0733 81.2491 47.9397H81.2343Z" fill="#6E78B3"/>
<path d="M104.455 47.9397C107.344 47.5833 113.183 47.0489 117.91 47.8357C118.888 47.9991 119.599 48.8602 119.599 49.84V53.715C119.599 54.8136 118.739 55.7044 117.658 55.749C114.679 55.8677 108.856 56.0311 104.588 55.8084C103.521 55.749 102.691 54.8582 102.691 53.7744V49.9588C102.691 48.9344 103.447 48.0733 104.469 47.9397H104.455Z" fill="#6E78B3"/>
<path d="M256.18 47.9397C259.069 47.5833 264.908 47.0489 269.635 47.8357C270.613 47.9991 271.324 48.8602 271.324 49.84V53.715C271.324 54.8136 270.465 55.7044 269.383 55.749C266.404 55.8677 260.581 56.0311 256.313 55.8084C255.246 55.749 254.416 54.8582 254.416 53.7744V49.9588C254.416 48.9344 255.172 48.0733 256.194 47.9397H256.18Z" fill="#6E78B3"/>
<path d="M279.415 47.9397C282.304 47.5833 288.143 47.0489 292.87 47.8357C293.848 47.9991 294.559 48.8602 294.559 49.84V53.715C294.559 54.8136 293.7 55.7044 292.618 55.749C289.625 55.8677 283.816 56.0311 279.548 55.8084C278.481 55.749 277.651 54.8582 277.651 53.7744V49.9588C277.651 48.9344 278.407 48.0733 279.43 47.9397H279.415Z" fill="#6E78B3"/>
<defs>
<linearGradient id="paint0_linear_3507_2106" x1="357.077" y1="104.178" x2="357.077" y2="62.0142" gradientUnits="userSpaceOnUse">
<stop stop-color="#FDE049"/>
<stop offset="1" stop-color="#FEFE49"/>
</linearGradient>
<linearGradient id="paint1_linear_3507_2106" x1="357.077" y1="102.011" x2="357.077" y2="62.712" gradientUnits="userSpaceOnUse">
<stop stop-color="#FA6B49"/>
<stop offset="1" stop-color="#FEB749"/>
</linearGradient>
<linearGradient id="paint2_linear_3507_2106" x1="4.60828e-06" y1="123.108" x2="1.48746" y2="103.422" gradientUnits="userSpaceOnUse">
<stop stop-color="#FDE049"/>
<stop offset="1" stop-color="#FEFE49"/>
</linearGradient>
<linearGradient id="paint3_linear_3507_2106" x1="-4.88616e-05" y1="120.94" x2="1.4874" y2="104.105" gradientUnits="userSpaceOnUse">
<stop stop-color="#FA6B49"/>
<stop offset="1" stop-color="#FEB749"/>
</linearGradient>
<linearGradient id="paint4_linear_3507_2106" x1="16.9078" y1="-1.69791e-05" x2="16.9078" y2="-1.69791e-05" gradientUnits="userSpaceOnUse">
<stop stop-color="#FDE049"/>
<stop offset="1" stop-color="#FEFE49"/>
</linearGradient>
<linearGradient id="paint5_linear_3507_2106" x1="16.9226" y1="2.99605e-05" x2="16.9226" y2="2.99605e-05" gradientUnits="userSpaceOnUse">
<stop stop-color="#FA6B49"/>
<stop offset="1" stop-color="#FEB749"/>
</linearGradient>
<linearGradient id="paint6_linear_3507_2106" x1="16.9079" y1="123.108" x2="16.9079" y2="103.421" gradientUnits="userSpaceOnUse">
<stop stop-color="#FDE049"/>
<stop offset="1" stop-color="#FEFE49"/>
</linearGradient>
<linearGradient id="paint7_linear_3507_2106" x1="16.9226" y1="120.94" x2="16.9226" y2="104.104" gradientUnits="userSpaceOnUse">
<stop stop-color="#FA6B49"/>
<stop offset="1" stop-color="#FEB749"/>
</linearGradient>
<linearGradient id="paint8_linear_3507_2106" x1="186.993" y1="49.261" x2="186.993" y2="10.7935" gradientUnits="userSpaceOnUse">
<stop stop-color="#FDE049"/>
<stop offset="1" stop-color="#FEFE49"/>
</linearGradient>
<linearGradient id="paint9_linear_3507_2106" x1="186.993" y1="44.9258" x2="186.993" y2="12.1594" gradientUnits="userSpaceOnUse">
<stop stop-color="#FA6B49"/>
<stop offset="1" stop-color="#FEB749"/>
</linearGradient>
<linearGradient id="paint10_linear_3507_2106" x1="123.422" y1="31.831" x2="53.2573" y2="31.831" gradientUnits="userSpaceOnUse">
<stop stop-color="#B2F1E8"/>
<stop offset="1" stop-color="#F7FFEC"/>
</linearGradient>
<linearGradient id="paint11_linear_3507_2106" x1="250.578" y1="-6.23753e-05" x2="320.743" y2="-6.23753e-05" gradientUnits="userSpaceOnUse">
<stop stop-color="#B2F1E8"/>
<stop offset="1" stop-color="#F7FFEC"/>
</linearGradient>
</defs>
</svg>
