<svg width="28" height="33" viewBox="0 0 28 33" fill="none" xmlns="http://www.w3.org/2000/svg">
<path d="M5.25 32.14C2.36 32.14 0 29.79 0 26.89V7.13C0 4.24 2.35 1.88 5.25 1.88C6.16 1.88 7.06 2.13 7.86 2.59L24.98 12.47C26.62 13.42 27.6 15.11 27.6 17.01C27.6 18.91 26.62 20.6 24.98 21.55L7.86 31.43C7.06 31.89 6.15 32.14 5.25 32.14Z" fill="url(#paint0_linear_3507_1597)"/>
<path d="M5.25 30.26C2.36 30.26 0 27.91 0 25.01V5.25C0 2.36 2.35 0 5.25 0C6.16 0 7.06 0.250001 7.86 0.710001L24.98 10.59C26.62 11.54 27.6 13.23 27.6 15.13C27.6 17.03 26.62 18.72 24.98 19.67L7.86 29.55C7.06 30.01 6.15 30.26 5.25 30.26Z" fill="url(#paint1_linear_3507_1597)"/>
<path d="M24.4501 11.52C27.2301 13.12 27.2301 17.13 24.4501 18.73L15.8901 23.67L7.33008 28.61C4.55008 30.21 1.08008 28.21 1.08008 25V5.24C1.08008 2.03 4.55008 0.029999 7.33008 1.63L15.8901 6.57L24.4501 11.51V11.52Z" fill="url(#paint2_linear_3507_1597)"/>
<defs>
<linearGradient id="paint0_linear_3507_1597" x1="11.43" y1="30.28" x2="15.25" y2="1.07001" gradientUnits="userSpaceOnUse">
<stop stop-color="#189934"/>
<stop offset="1" stop-color="#67FF7D"/>
</linearGradient>
<linearGradient id="paint1_linear_3507_1597" x1="11.43" y1="28.4" x2="15.25" y2="-0.8" gradientUnits="userSpaceOnUse">
<stop stop-color="#BDF8C7"/>
<stop offset="1" stop-color="#D9FFDE"/>
</linearGradient>
<linearGradient id="paint2_linear_3507_1597" x1="11.5401" y1="27.52" x2="15.0901" y2="0.409999" gradientUnits="userSpaceOnUse">
<stop stop-color="#21CF46"/>
<stop offset="1" stop-color="#67FF7D"/>
</linearGradient>
</defs>
</svg>
