<svg width="34" height="31" viewBox="0 0 34 31" fill="none" xmlns="http://www.w3.org/2000/svg">
<path d="M20.1874 0.610048C12.4874 -0.309952 5.75742 4.54006 3.73742 11.4001H2.56742C0.797417 11.4001 -0.312581 13.3201 0.577419 14.8501L3.30742 19.58L6.03742 24.31C6.92742 25.84 9.13742 25.84 10.0274 24.31L12.7574 19.58L15.4874 14.8501C16.3774 13.3201 15.2674 11.4001 13.4974 11.4001H11.8074C13.3274 9.10006 16.0274 7.64004 19.0574 7.92004C22.6674 8.25004 25.6474 11.16 26.0674 14.76C26.5474 18.89 23.7974 22.4701 20.0074 23.3001C19.1174 23.5001 18.5074 24.33 18.5074 25.25V28.67C18.5074 29.92 19.6374 30.87 20.8674 30.67C28.5974 29.36 34.3474 22.21 33.4074 13.92C32.6274 7.03005 27.0674 1.44004 20.1874 0.620042V0.610048Z" fill="#FAFF08"/>
</svg>
