<svg width="32" height="33" viewBox="0 0 32 33" fill="none" xmlns="http://www.w3.org/2000/svg">
<path d="M31.4775 19.42V13.52H27.4575C27.1875 12.37 26.7575 11.28 26.1875 10.28L28.9775 7.48995L24.8075 3.31995L22.0875 6.03995C21.0775 5.40995 19.9575 4.92995 18.7775 4.61995V0.819946H12.8775V4.58995C11.6775 4.88995 10.5475 5.35995 9.51748 5.98995L6.84748 3.31995L2.67748 7.48995L5.38748 10.21C4.79748 11.23 4.34748 12.34 4.06748 13.52H0.16748V19.42H4.17748C4.48748 20.54 4.94748 21.6 5.54748 22.56L2.65748 25.45L6.82748 29.6199L9.78748 26.66C10.7375 27.2 11.7675 27.6199 12.8575 27.8899V32.1199H18.7575V27.8599C19.8275 27.5799 20.8475 27.16 21.7775 26.6199L24.7775 29.6199L28.9475 25.45L25.9875 22.49C26.5675 21.55 27.0175 20.52 27.3175 19.42H31.4475H31.4775ZM15.7675 21.6399C12.7875 21.6399 10.3675 19.22 10.3675 16.24C10.3675 13.26 12.7875 10.84 15.7675 10.84C18.7475 10.84 21.1675 13.26 21.1675 16.24C21.1675 19.22 18.7475 21.6399 15.7675 21.6399Z" fill="#FAFF08"/>
</svg>
