<svg width="17" height="18" viewBox="0 0 17 18" fill="none" xmlns="http://www.w3.org/2000/svg">
<g clip-path="url(#clip0_3507_3250)">
<path d="M11.8473 17.115C11.4428 17.115 11.0383 17.009 10.66 16.8101L8.28532 15.5374L5.91069 16.8101C5.53231 17.009 5.14088 17.115 4.72337 17.115C3.97966 17.115 3.26205 16.7703 2.7793 16.187C2.29654 15.6037 2.10083 14.8613 2.2313 14.0924L2.68796 11.4012L0.76999 9.50541C0.0654282 8.81604 -0.169426 7.79524 0.130665 6.85398C0.430757 5.91272 1.2136 5.23661 2.17911 5.09078L4.82775 4.69306L6.01506 2.25375C6.44563 1.36552 7.31981 0.808716 8.29837 0.808716C9.27693 0.808716 10.1511 1.36552 10.5817 2.25375L11.769 4.69306L14.4176 5.09078C15.3831 5.23661 16.166 5.91272 16.4661 6.85398C16.7662 7.79524 16.5183 8.81604 15.8267 9.50541L13.9088 11.4012L14.3654 14.0924C14.4959 14.8613 14.3002 15.6037 13.8174 16.187C13.3216 16.7836 12.6171 17.115 11.8734 17.115H11.8473Z" fill="url(#paint0_linear_3507_3250)"/>
<path d="M11.8473 16.2934C11.4428 16.2934 11.0383 16.1873 10.66 15.9884L8.28532 14.7158L5.91069 15.9884C5.53231 16.1873 5.14088 16.2934 4.72337 16.2934C3.97966 16.2934 3.26205 15.9487 2.7793 15.3654C2.29654 14.782 2.10083 14.0396 2.2313 13.2707L2.68796 10.5795L0.76999 8.68376C0.0654282 7.98113 -0.169426 6.97358 0.130665 6.03232C0.430757 5.09107 1.2136 4.41495 2.17911 4.26912L4.82775 3.87141L6.01506 1.43209C6.44563 0.543861 7.31981 -0.0129395 8.29837 -0.0129395C9.27693 -0.0129395 10.1511 0.543861 10.5817 1.43209L11.769 3.87141L14.4176 4.26912C15.3831 4.41495 16.166 5.09107 16.4661 6.03232C16.7662 6.97358 16.5183 7.99438 15.8267 8.68376L13.9088 10.5795L14.3654 13.2707C14.4959 14.0396 14.3002 14.782 13.8174 15.3654C13.3216 15.9619 12.6171 16.2934 11.8734 16.2934H11.8473Z" fill="url(#paint1_linear_3507_3250)"/>
<path d="M10.0857 1.68354L11.4035 4.388L14.3392 4.82548C15.9701 5.06411 16.6355 7.10571 15.4482 8.2856L13.3215 10.3935L13.8173 13.3631C14.0913 15.0202 12.3821 16.2797 10.9208 15.4975L8.29823 14.0922L5.67569 15.4975C4.21437 16.2797 2.50516 15.0202 2.77916 13.3631L3.27496 10.3935L1.14822 8.2856C-0.0390931 7.10571 0.613279 5.06411 2.25726 4.82548L5.19293 4.388L6.51073 1.68354C7.24138 0.17222 9.35507 0.17222 10.0857 1.68354Z" fill="url(#paint2_linear_3507_3250)"/>
<path d="M12.1731 5.83303C12.1731 6.35006 11.7686 6.76103 11.2598 6.76103C10.7509 6.76103 10.3464 6.35006 10.3464 5.83303C10.3464 5.316 10.7509 4.90503 11.2598 4.90503C11.7686 4.90503 12.1731 5.316 12.1731 5.83303Z" fill="white"/>
<path d="M12.5907 7.30467C12.5907 7.47701 12.4602 7.60958 12.2906 7.60958C12.121 7.60958 11.9905 7.47701 11.9905 7.30467C11.9905 7.13233 12.121 6.99976 12.2906 6.99976C12.4602 6.99976 12.5907 7.13233 12.5907 7.30467Z" fill="white"/>
</g>
<defs>
<linearGradient id="paint0_linear_3507_3250" x1="8.29837" y1="16.4787" x2="8.29837" y2="-2.6514" gradientUnits="userSpaceOnUse">
<stop stop-color="#929292"/>
<stop offset="1" stop-color="#C0C0C0"/>
</linearGradient>
<linearGradient id="paint1_linear_3507_3250" x1="8.29837" y1="15.657" x2="8.29837" y2="-3.47306" gradientUnits="userSpaceOnUse">
<stop stop-color="#D8D8D8"/>
<stop offset="1" stop-color="#EAEAEA"/>
</linearGradient>
<linearGradient id="paint2_linear_3507_3250" x1="8.29823" y1="15.1396" x2="8.29823" y2="-2.67807" gradientUnits="userSpaceOnUse">
<stop stop-color="#929292"/>
<stop offset="1" stop-color="#C0C0C0"/>
</linearGradient>
<clipPath id="clip0_3507_3250">
<rect width="16.5964" height="17.115" fill="white"/>
</clipPath>
</defs>
</svg>
