<svg width="17" height="18" viewBox="0 0 17 18" fill="none" xmlns="http://www.w3.org/2000/svg">
<g clip-path="url(#clip0_3507_3241)">
<path d="M11.8473 17.115C11.4428 17.115 11.0383 17.009 10.66 16.8101L8.28532 15.5374L5.91069 16.8101C5.53231 17.009 5.14088 17.115 4.72337 17.115C3.97966 17.115 3.26205 16.7703 2.7793 16.187C2.29654 15.6037 2.10083 14.8613 2.2313 14.0924L2.68796 11.4012L0.76999 9.50541C0.0654282 8.81604 -0.169426 7.79524 0.130665 6.85398C0.430757 5.91272 1.2136 5.23661 2.17911 5.09078L4.82775 4.69306L6.01506 2.25375C6.44563 1.36552 7.31981 0.808716 8.29837 0.808716C9.27693 0.808716 10.1511 1.36552 10.5817 2.25375L11.769 4.69306L14.4176 5.09078C15.3831 5.23661 16.166 5.91272 16.4661 6.85398C16.7662 7.79524 16.5183 8.81604 15.8267 9.50541L13.9088 11.4012L14.3654 14.0924C14.4959 14.8613 14.3002 15.6037 13.8174 16.187C13.3216 16.7836 12.6171 17.115 11.8734 17.115H11.8473Z" fill="url(#paint0_linear_3507_3241)"/>
<path d="M11.8473 16.2932C11.4428 16.2932 11.0383 16.1872 10.66 15.9883L8.28532 14.7156L5.91069 15.9883C5.53231 16.1872 5.14088 16.2932 4.72337 16.2932C3.97966 16.2932 3.26205 15.9486 2.7793 15.3652C2.29654 14.7819 2.10083 14.0395 2.2313 13.2706L2.68796 10.5794L0.76999 8.68363C0.0654282 7.981 -0.169426 6.97346 0.130665 6.0322C0.430757 5.09094 1.2136 4.41483 2.17911 4.269L4.82775 3.87129L6.01506 1.43197C6.44563 0.543739 7.31981 -0.0130615 8.29837 -0.0130615C9.27693 -0.0130615 10.1511 0.543739 10.5817 1.43197L11.769 3.87129L14.4176 4.269C15.3831 4.41483 16.166 5.09094 16.4661 6.0322C16.7662 6.97346 16.5183 7.99426 15.8267 8.68363L13.9088 10.5794L14.3654 13.2706C14.4959 14.0395 14.3002 14.7819 13.8174 15.3652C13.3216 15.9618 12.6171 16.2932 11.8734 16.2932H11.8473Z" fill="url(#paint1_linear_3507_3241)"/>
<path d="M10.086 1.68354L11.4038 4.388L14.3395 4.82548C15.9704 5.06411 16.6358 7.10571 15.4485 8.2856L13.3218 10.3935L13.8176 13.3631C14.0916 15.0202 12.3824 16.2797 10.9211 15.4975L8.29852 14.0922L5.67598 15.4975C4.21467 16.2797 2.50546 15.0202 2.77945 13.3631L3.27525 10.3935L1.14852 8.2856C-0.0387972 7.10571 0.626623 5.06411 2.25755 4.82548L5.19323 4.388L6.51102 1.68354C7.24168 0.17222 9.35536 0.17222 10.086 1.68354Z" fill="url(#paint2_linear_3507_3241)"/>
<path d="M12.1733 5.83303C12.1733 6.35006 11.7689 6.76103 11.26 6.76103C10.7512 6.76103 10.3467 6.35006 10.3467 5.83303C10.3467 5.316 10.7512 4.90503 11.26 4.90503C11.7689 4.90503 12.1733 5.316 12.1733 5.83303Z" fill="white"/>
<path d="M12.2908 7.60946C12.4566 7.60946 12.5909 7.47295 12.5909 7.30455C12.5909 7.13615 12.4566 6.99963 12.2908 6.99963C12.1251 6.99963 11.9907 7.13615 11.9907 7.30455C11.9907 7.47295 12.1251 7.60946 12.2908 7.60946Z" fill="white"/>
</g>
<defs>
<linearGradient id="paint0_linear_3507_3241" x1="8.29837" y1="16.4787" x2="8.29837" y2="-2.6514" gradientUnits="userSpaceOnUse">
<stop stop-color="#FA6B49"/>
<stop offset="1" stop-color="#FEB749"/>
</linearGradient>
<linearGradient id="paint1_linear_3507_3241" x1="8.29837" y1="15.6569" x2="8.29837" y2="-3.47318" gradientUnits="userSpaceOnUse">
<stop stop-color="#FDE049"/>
<stop offset="1" stop-color="#FEFE49"/>
</linearGradient>
<linearGradient id="paint2_linear_3507_3241" x1="8.29852" y1="15.1396" x2="8.29852" y2="-2.67807" gradientUnits="userSpaceOnUse">
<stop stop-color="#FA6B49"/>
<stop offset="1" stop-color="#FEB749"/>
</linearGradient>
<clipPath id="clip0_3507_3241">
<rect width="16.5964" height="17.115" fill="white"/>
</clipPath>
</defs>
</svg>
